<?xml version="1.0" encoding="UTF-8"?>
<svg id="uuid-ab2ec144-91a4-4b30-98ae-3fba248e6e53" data-name="圖層_1" xmlns="http://www.w3.org/2000/svg" viewBox="0 0 566.93 566.93">
  <defs>
    <style>
      .uuid-7f7c8108-d3c4-4657-9e74-3ceb69113519 {
        fill: #fff;
      }

      .uuid-ac9e99d0-e6c9-4aae-b9af-65be3e126bc2 {
        fill: #d8d8d8;
      }
    </style>
  </defs>
  <path class="uuid-7f7c8108-d3c4-4657-9e74-3ceb69113519" d="M79.4,489.16c-7.18,0-14.28-2.02-20.97-6.01-14.32-8.56-24.85-25.2-28.89-45.66-19.33-97.95-19.07-201.47.76-307.69,3.91-20.94,14.5-37.98,29.05-46.73,10.35-6.22,21.68-7.68,32.76-4.21,83.21,26.04,138.56,95.01,154.77,148.07l.22.71v110.63l-.22.71c-16.31,53.39-72.01,122.59-155.76,148.38-3.9,1.2-7.82,1.8-11.73,1.8ZM35.22,130.71l4.92.92c-19.6,104.97-19.86,207.22-.78,303.92,3.49,17.69,12.31,31.91,24.21,39.01,7.82,4.67,16.33,5.8,24.62,3.25,79.89-24.6,133.08-90.19,148.92-141.03v-107.63c-15.74-50.54-68.6-115.9-147.98-140.74-8.28-2.59-16.79-1.47-24.62,3.24-12.1,7.28-20.99,21.86-24.37,39.99l-4.92-.92Z"/>
  <path class="uuid-7f7c8108-d3c4-4657-9e74-3ceb69113519" d="M488.11,489.16c-3.9,0-7.83-.6-11.73-1.8-83.75-25.79-139.45-94.99-155.76-148.38l-.22-.71v-110.63l.22-.71c16.21-53.06,71.56-122.03,154.77-148.07,11.08-3.47,22.41-2.01,32.76,4.21,14.55,8.75,25.14,25.78,29.05,46.73,19.83,106.22,20.09,209.74.76,307.69-4.04,20.46-14.57,37.1-28.89,45.66-6.69,4-13.79,6.01-20.97,6.01ZM330.41,336.77c15.84,50.84,69.03,116.43,148.92,141.03,8.28,2.55,16.8,1.43,24.62-3.25,11.89-7.11,20.72-21.33,24.21-39.01,19.08-96.7,18.82-198.96-.78-303.92h0c-3.39-18.14-12.27-32.71-24.37-39.99-7.83-4.71-16.34-5.83-24.62-3.24-79.38,24.84-132.23,90.21-147.98,140.74v107.63Z"/>
  <g>
    <path class="uuid-ac9e99d0-e6c9-4aae-b9af-65be3e126bc2" d="M421.84,343.17c-16.11-12.26-54.72-34.91-96.43-42.4v12.61c35.96,4.06,59.76,14.68,96.38,34.18,3.24,1.73,5.29-.41.05-4.4Z"/>
    <path class="uuid-ac9e99d0-e6c9-4aae-b9af-65be3e126bc2" d="M421.84,223c5.24-3.99,3.19-6.12-.05-4.4-36.62,19.5-60.42,30.12-96.38,34.18v12.61c41.72-7.49,80.33-30.14,96.43-42.4Z"/>
    <path class="uuid-ac9e99d0-e6c9-4aae-b9af-65be3e126bc2" d="M242.1,265.53c-41.98-7.36-80.92-30.2-97.11-42.53-5.24-3.99-3.19-6.12.05-4.4,36.85,19.62,60.72,30.26,97.06,34.26v12.66Z"/>
    <path class="uuid-ac9e99d0-e6c9-4aae-b9af-65be3e126bc2" d="M242.1,313.3c-36.34,4-60.21,14.64-97.06,34.26-3.24,1.73-5.29-.41-.05-4.4,16.19-12.33,55.14-35.17,97.11-42.53v12.66Z"/>
  </g>
  <path class="uuid-7f7c8108-d3c4-4657-9e74-3ceb69113519" d="M312.34,360.74h-57.18c-9.96,0-18.06-8.1-18.06-18.06v-119.19c0-9.96,8.1-18.06,18.06-18.06h57.18c9.96,0,18.06,8.1,18.06,18.06v119.19c0,9.96-8.1,18.06-18.06,18.06ZM255.16,215.43c-4.45,0-8.06,3.62-8.06,8.06v119.19c0,4.45,3.62,8.06,8.06,8.06h57.18c4.45,0,8.06-3.62,8.06-8.06v-119.19c0-4.45-3.62-8.06-8.06-8.06h-57.18Z"/>
</svg>